<svg xmlns="http://www.w3.org/2000/svg" width="24.123" height="22.132" viewBox="0 0 24.123 22.132">
  <g id="Group_18528" data-name="Group 18528" transform="translate(-22 -224.868)">
    <path id="Path_29237" data-name="Path 29237" d="M45.594,20.622c-3.137-2.517,1.482-3.206,3.551-5.412s-.655-2.31-.655-2.31,2.551.827-3.378,2.792-6.205,5.206-4.826,6.24c1.62,1.241,4.171,2.62-1.62,5.412a12.682,12.682,0,0,0-6.033,6.895.558.558,0,0,0,.517.758l12.411.034a.561.561,0,0,0,.483-.862c-.758-1.276-1.62-3.723,1.448-5.826C53.833,24.1,48.179,22.691,45.594,20.622Z" transform="translate(-8.84 211.968)" fill="#fff"/>
    <path id="Path_29238" data-name="Path 29238" d="M27.916,30.558h2.241l-.1,3.137c0,.207.483.241.827.241.31,0,.827-.034.827-.241l-.1-3.137h2.241a.4.4,0,0,0,.31-.655l-1.31-1.586h.621a.349.349,0,0,0,.276-.552l-1.207-1.482h.379a.225.225,0,0,0,.172-.379l-2.068-2.551a.271.271,0,0,0-.379,0L28.571,25.9a.234.234,0,0,0,.172.379h.379l-1.172,1.482a.336.336,0,0,0,.276.552h.621l-1.276,1.551A.448.448,0,0,0,27.916,30.558Z" transform="translate(-5.504 205.169)" fill="#fff"/>
    <path id="Path_29239" data-name="Path 29239" d="M88.8,23.283l-.862-1.069h.414a.225.225,0,0,0,.172-.379l-.827-1H88a.18.18,0,0,0,.138-.276L86.727,18.8a.167.167,0,0,0-.241,0L85.038,20.56a.18.18,0,0,0,.138.276h.276l-.793,1a.234.234,0,0,0,.172.379h.414l-.862,1.069a.273.273,0,0,0,.207.448h1.517l-.069,2.137c0,.138.345.172.552.172s.552,0,.552-.172l-.069-2.137h1.517A.273.273,0,0,0,88.8,23.283Z" transform="translate(-42.734 208.134)" fill="#fff"/>
  </g>
</svg>
