<svg xmlns="http://www.w3.org/2000/svg" width="23.179" height="23.179" viewBox="0 0 23.179 23.179">
  <g id="attractions_nearby" transform="translate(-70.003)">
    <path id="Path_29477" data-name="Path 29477" d="M319.567,62.134a1.373,1.373,0,1,1-1.373-1.373,1.373,1.373,0,0,1,1.373,1.373" transform="translate(-236.601 -58.246)" fill="#fff"/>
    <path id="Path_29478" data-name="Path 29478" d="M259.127,0a3.926,3.926,0,0,0-3.782,4.973,3.735,3.735,0,0,0,.131.393l.119.27,3.532,6.527,3.536-6.536.107-.243a3.869,3.869,0,0,0,.138-.41A3.926,3.926,0,0,0,259.127,0Zm0,5.987a2.1,2.1,0,1,1,2.1-2.1A2.1,2.1,0,0,1,259.127,5.987Z" transform="translate(-177.534)" fill="#fff"/>
    <path id="Path_29479" data-name="Path 29479" d="M444.327,266.18a3.926,3.926,0,0,0-3.782,4.973,3.8,3.8,0,0,0,.131.393l.119.27,3.532,6.527,3.536-6.536.107-.243a3.912,3.912,0,0,0,.28-1.459,3.924,3.924,0,0,0-3.924-3.924Zm0,5.987a2.1,2.1,0,1,1,2.1-2.1A2.1,2.1,0,0,1,444.327,272.167Z" transform="translate(-355.069 -255.163)" fill="#fff"/>
    <path id="Path_29480" data-name="Path 29480" d="M504.767,328.3a1.373,1.373,0,1,1-1.373-1.373,1.373,1.373,0,0,1,1.373,1.373" transform="translate(-414.135 -313.398)" fill="#fff"/>
    <path id="Path_29481" data-name="Path 29481" d="M73.927,266.18a3.926,3.926,0,0,0-3.782,4.973,3.8,3.8,0,0,0,.131.393l.119.27,3.532,6.527,3.536-6.536.107-.243a3.876,3.876,0,0,0,.138-.41,3.926,3.926,0,0,0-3.782-4.973Zm0,5.987a2.1,2.1,0,1,1,2.1-2.1A2.1,2.1,0,0,1,73.927,272.167Z" transform="translate(0 -255.163)" fill="#fff"/>
    <path id="Path_29482" data-name="Path 29482" d="M134.367,328.3a1.373,1.373,0,1,1-1.373-1.373,1.373,1.373,0,0,1,1.373,1.373" transform="translate(-59.067 -313.398)" fill="#fff"/>
    <path id="Path_29483" data-name="Path 29483" d="M156.774,169.815h-.724V165.5h5.6v.724h-4.871Z" transform="translate(-82.485 -158.65)" fill="#fff"/>
    <path id="Path_29484" data-name="Path 29484" d="M414.356,169.815h-.724v-3.591H408.76V165.5h5.6Z" transform="translate(-324.736 -158.65)" fill="#fff"/>
  </g>
</svg>
