<svg xmlns="http://www.w3.org/2000/svg" width="22.378" height="18.148" viewBox="0 0 22.378 18.148">
  <g id="bike_repair" transform="translate(-8263.484 3288.915)">
    <path id="Path_29525" data-name="Path 29525" d="M304.618,2.363h0l-2.763-.548-2.531,4.377-3.132-.621L295.523.559,292.76.011a.6.6,0,1,0-.235,1.186l1.914.38.549,4.114-1.156,5.831-1.647-.327-.127.642,1.647.327-.036.181a.6.6,0,1,0,1.186.235l1.163-5.863,3.03.6-1.163,5.863a.6.6,0,0,0,.593.722.6.6,0,0,0,.148-.021l3,4.181.532-.382-3.086-4.295.03-.152,1.647.327.127-.642-1.647-.327,1.156-5.831,2.078-3.593,1.915.38a.6.6,0,1,0,.235-1.185Z" transform="translate(7980.756 -3288.914)" fill="#fff"/>
    <path id="Path_29526" data-name="Path 29526" d="M371.47,269.34a1.008,1.008,0,0,0-1.184.792l-1.46,7.362a1.007,1.007,0,0,0,1.976.392l1.46-7.362A1.007,1.007,0,0,0,371.47,269.34Z" transform="translate(7906.476 -3549.507)" fill="#fff"/>
    <path id="Path_29527" data-name="Path 29527" d="M436.138,62.395a1.612,1.612,0,1,0-1.895,1.268A1.612,1.612,0,0,0,436.138,62.395Zm-2.734-.542a1.175,1.175,0,1,1,.924,1.382A1.175,1.175,0,0,1,433.4,61.852Z" transform="translate(7844.416 -3347.424)" fill="#fff"/>
    <path id="Path_29528" data-name="Path 29528" d="M127.386,17.153a2.193,2.193,0,1,1-2.858,1.205,2.193,2.193,0,0,1,2.858-1.205" transform="translate(8142.995 -3305.355)" fill="#fff"/>
    <path id="Path_29529" data-name="Path 29529" d="M7.128,146.846a.975.975,0,1,1,1.792-.769c.007.015.018.037.033.066a3.317,3.317,0,0,0,.171.286,4.6,4.6,0,0,0,.463.585,1.7,1.7,0,0,0-.686-2.043,2.231,2.231,0,0,0-2.76,1.254,10.773,10.773,0,0,0-1.4,5.259,1.866,1.866,0,0,0,1.6,1.986,1.211,1.211,0,0,0,.184.061h0l2.413.57-3.035,1.947A1.219,1.219,0,1,0,7.224,158.1l5.454-3.5a1.218,1.218,0,0,0-.378-2.212l-4.074-.961A13.648,13.648,0,0,1,8.864,149c-.076-.062-.149-.124-.217-.185a6.039,6.039,0,0,1-1.518-1.972Z" transform="translate(8258.739 -3429.061)" fill="#fff"/>
    <path id="Path_29530" data-name="Path 29530" d="M284.761,169.64c.109,0,.227,0,.349-.007h.037a.974.974,0,0,1,.38.077l.256-.48-.244-.13,1.333-2.493-.315-.169-1.333,2.493-.244-.13-.447.836c.071,0,.141,0,.213,0Z" transform="translate(7988.018 -3449.958)" fill="#fff"/>
    <path id="Path_29531" data-name="Path 29531" d="M89.79,174.75a.78.78,0,0,0-.809-.75c-.127,0-.251.007-.37.007a6.124,6.124,0,0,1-4.217-1.434,4.921,4.921,0,0,1-.846-.965,3.46,3.46,0,0,1-.18-.3c-.018-.034-.03-.059-.037-.073l0-.009a.78.78,0,0,0-1.436.61,5.83,5.83,0,0,0,1.471,1.909,7.692,7.692,0,0,0,5.227,1.824h.022q.212,0,.429-.008a.78.78,0,0,0,.75-.809Z" transform="translate(8184.153 -3454.131)" fill="#fff"/>
  </g>
</svg>
