<svg xmlns="http://www.w3.org/2000/svg" width="24.035" height="25.144" viewBox="0 0 24.035 25.144">
  <path id="days_out" d="M160.848,50.883l-1.42-1.42L142.242,66.621l1.42,1.42Zm.261,7.97a6.084,6.084,0,0,0,0,11.129,6.071,6.071,0,1,1,0-11.129Zm-14.636.522a3.771,3.771,0,1,1,5.333-5.333m-9.216-5.217-1.333,1.333,3.217,3.217,1.333-1.333Zm-3.536,6.057-.174,1.884,4.521.406.174-1.884Zm1.188,6.9,1.072,1.536,3.71-2.608-1.072-1.536Zm8.956-15.3-1.884.174.406,4.521L149.6,51Zm6.579,2.406-1.536-1.072-2.608,3.71,1.536,1.072Z" transform="translate(-138.336 -45.934)" fill="#fff" stroke="#fff" stroke-width="1"/>
</svg>
