<svg xmlns="http://www.w3.org/2000/svg" width="16.468" height="16.726" viewBox="0 0 16.468 16.726">
  <g id="emerency_number" transform="translate(113 -1364)">
    <path id="Path_29593" data-name="Path 29593" d="M174.586,190.959c-.839.159-.747,1.235-1.631,1.631-1.314.589-3.171-1.449-3.171-1.449s-2.038-1.857-1.449-3.171c.4-.885,1.472-.793,1.63-1.631.139-.734-1.313-3.4-2.309-3.216a4.111,4.111,0,0,0-2.409,2.771c-.4,2.03.188,4.521,2.725,7.059s5.028,3.125,7.059,2.725a4.109,4.109,0,0,0,2.77-2.408c.181-1-2.481-2.449-3.215-2.311Z" transform="translate(-278.133 1184.933)" fill="#fff"/>
    <path id="Path_29594" data-name="Path 29594" d="M311.879,92.238a5.079,5.079,0,1,0,5.079,5.079A5.085,5.085,0,0,0,311.879,92.238Zm0,9.162a4.082,4.082,0,1,1,4.082-4.083A4.087,4.087,0,0,1,311.879,101.4Z" transform="translate(-413.491 1271.762)" fill="#fff"/>
    <path id="Path_29595" data-name="Path 29595" d="M362.218,144.16h-1.46V146.2h-2.037v1.46h2.037v2.037h1.46v-2.037h2.037V146.2h-2.037Z" transform="translate(-463.099 1222.153)" fill="#fff"/>
  </g>
</svg>
