<svg id="equipments" xmlns="http://www.w3.org/2000/svg" width="24.875" height="23.33" viewBox="0 0 24.875 23.33">
  <path id="Path_29377" data-name="Path 29377" d="M70.72,40.139A9.508,9.508,0,0,0,72.944,42.5a7.554,7.554,0,0,0,1.727.977.4.4,0,0,0,.532-.408,5.577,5.577,0,0,1,1.922-4.02.735.735,0,0,0,.55-.043l5.319,5.28-.064.063a.389.389,0,0,0-.009.542l7,7.433,2.663-2.628-7.5-6.964a.388.388,0,0,0-.538.009l-.068.067-5.288-5.249a.769.769,0,0,0-.015-1.079L76.9,34.218a.8.8,0,0,0-1.1,0L74.516,35.5h0a.771.771,0,0,0-.094.983,5.746,5.746,0,0,1-4.044,1.84.388.388,0,0,0-.353.55,9.217,9.217,0,0,0,.7,1.268Zm7.924-2.033,5.286,5.247-.384.381L78.26,38.487ZM74.97,37.044l1.52,1.508a6.1,6.1,0,0,0-2.024,3.975,8.511,8.511,0,0,1-2.93-2.577l-.022-.03h0a7.076,7.076,0,0,1-.533-.867,6.174,6.174,0,0,0,3.989-2.01Z" transform="translate(-69.99 -33.256)" fill="#fff"/>
  <path id="Path_29378" data-name="Path 29378" d="M533.525,399.25l-2.7,2.664,1.226,1.3h0a1.275,1.275,0,0,0,1.83.029l.971-.964h0a1.259,1.259,0,0,0-.03-1.825Zm-.341,2.74a.388.388,0,1,1,.275-.114A.389.389,0,0,1,533.183,401.99Z" transform="translate(-510.356 -382.283)" fill="#fff"/>
  <path id="Path_29379" data-name="Path 29379" d="M309.124,18.821a1.56,1.56,0,1,0-.767,1.338l3.7,3.7a.809.809,0,0,0,.006,1.091l4.923,5.207,1.922-1.937-5.24-4.911A.787.787,0,0,0,312.6,23.3l-3.693-3.693a1.544,1.544,0,0,0,.217-.788Zm-1.555.777a.778.778,0,1,1,.549-.228.777.777,0,0,1-.549.228Z" transform="translate(-295.52 -17.256)" fill="#fff"/>
  <path id="Path_29380" data-name="Path 29380" d="M567.217,276.03,565.262,278l.589.623h0a.953.953,0,0,0,.7.3h0a.953.953,0,0,0,.689-.293l.624-.642a.971.971,0,0,0-.034-1.389Z" transform="translate(-543.263 -264.536)" fill="#fff"/>
  <path id="Path_29381" data-name="Path 29381" d="M346.419,380.95l-4.095-3.837-1.745,1.62,3.867,4.09Z" transform="translate(-328.56 -361.129)" fill="#fff"/>
  <path id="Path_29382" data-name="Path 29382" d="M441.1,478.461a.953.953,0,0,0,.689-.293l.624-.642a.971.971,0,0,0-.034-1.389l-.7-.653-2.007,1.9.726.768h0A.952.952,0,0,0,441.1,478.461Z" transform="translate(-423.253 -455.131)" fill="#fff"/>
  <path id="Path_29383" data-name="Path 29383" d="M211.766,245.48a.8.8,0,0,0-.528.205l-4.95-4.95a.389.389,0,0,0-.55.55l4.956,4.956a.809.809,0,0,0,.006,1.091l.385.407,1.711-1.588-.491-.46h0a.789.789,0,0,0-.539-.211Z" transform="translate(-199.6 -230.7)" fill="#fff"/>
</svg>
