<svg xmlns="http://www.w3.org/2000/svg" width="21.577" height="17.895" viewBox="0 0 21.577 17.895">
  <path id="garages" d="M145.632,114.363h8.134c0-1.284-.685-2.826-2.055-2.826h-3.939c-1.456,0-2.141,1.541-2.141,2.826Zm-5.737-10.1h19.693a.95.95,0,0,1,.942.942v1.712a.95.95,0,0,1-.942.942v14.3h-1.456v-14.3H141.693v14.3h-1.456v-14.3H139.9a.95.95,0,0,1-.942-.942V105.2a.95.95,0,0,1,.942-.942Zm14.9,15.326v.942a1.158,1.158,0,0,1-2.312,0v-.942h-5.565v.942a1.113,1.113,0,0,1-2.226,0v-.942h-1.456v-3.425a1.862,1.862,0,0,1,1.2-1.712h-.685a.4.4,0,0,1-.428-.428v-.514h1.37a3.3,3.3,0,0,1,3.082-3h3.939a3.376,3.376,0,0,1,3.082,3h1.284v.514a.4.4,0,0,1-.428.428h-.685a1.825,1.825,0,0,1,1.284,1.712v3.425h-1.456Zm-9.076-3.168a.989.989,0,0,1,1.027,1.027,1.041,1.041,0,0,1-1.027,1.027,1.028,1.028,0,0,1-.942-1.027A.972.972,0,0,1,145.717,116.418Zm7.962,0a.989.989,0,0,1,1.027,1.027,1.041,1.041,0,0,1-1.027,1.027,1.028,1.028,0,0,1-.942-1.027A.972.972,0,0,1,153.68,116.418Z" transform="translate(-138.953 -104.26)" fill="#fff" fill-rule="evenodd"/>
</svg>
