<svg xmlns="http://www.w3.org/2000/svg" width="19.467" height="16.726" viewBox="0 0 19.467 16.726">
  <g id="public_transport" transform="translate(-8442 3222)">
    <path id="Path_29570" data-name="Path 29570" d="M190.161,478.75v1.16a.362.362,0,0,1-.364.364h-2.789a.362.362,0,0,1-.364-.364v-1.16Z" transform="translate(8259.467 -3685.548)" fill="#fff"/>
    <path id="Path_29571" data-name="Path 29571" d="M414.7,478.75v1.16a.365.365,0,0,1-.364.364h-2.792a.365.365,0,0,1-.364-.364v-1.16Z" transform="translate(8042.659 -3685.548)" fill="#fff"/>
    <path id="Path_29572" data-name="Path 29572" d="M306.68,416.6h2.982v-1.451l-2.978-.011Z" transform="translate(8143.563 -3624.124)" fill="#fff"/>
    <path id="Path_29573" data-name="Path 29573" d="M86.253,40.518H84.9a.365.365,0,0,0-.364.364v2.036a.362.362,0,0,0,.364.364h.316v.167a.284.284,0,0,1-.229.276l-1.007.186V39.973a2.994,2.994,0,0,0-2.989-2.992H72.781a3,3,0,0,0-2.992,2.992V43.91l-1.007-.185a.284.284,0,0,1-.225-.276v-.167h.313a.362.362,0,0,0,.364-.364V40.882a.365.365,0,0,0-.364-.364H67.513a.365.365,0,0,0-.364.364v2.036a.362.362,0,0,0,.364.364h.316v.167a1,1,0,0,0,.822.989l1.138.211v5.585a1.221,1.221,0,0,0,1.218,1.222h3.654V50a.738.738,0,0,1,.734-.738h2.967A.739.739,0,0,1,79.1,50v1.451h3.658a1.221,1.221,0,0,0,1.218-1.222V44.649l1.138-.211a1,1,0,0,0,.825-.989v-.167h.313a.362.362,0,0,0,.364-.364V40.882a.365.365,0,0,0-.364-.364ZM72.389,49.737a1.415,1.415,0,1,1,1.417-1.413A1.415,1.415,0,0,1,72.389,49.737Zm-.4-5.841a.559.559,0,0,1-.385-.531V38.8h1.567l.364,1.051h2.981v4.825a16.02,16.02,0,0,1-4.527-.778Zm6.7,4.2H75.08a.364.364,0,0,1,0-.727h3.607a.364.364,0,0,1,0,.727Zm0-1.441H75.08a.364.364,0,0,1,0-.727h3.607a.364.364,0,0,1,0,.727Zm-1.441-1.982V39.849h2.985L80.6,38.8h1.567v4.567a.559.559,0,0,1-.385.531,16.081,16.081,0,0,1-4.53.778Zm4.127,5.063a1.415,1.415,0,1,1,1.417-1.413A1.415,1.415,0,0,1,81.374,49.737Z" transform="translate(8374.851 -3258.98)" fill="#fff"/>
    <path id="Path_29574" data-name="Path 29574" d="M461.27,346.59a.688.688,0,1,0,.69.69A.689.689,0,0,0,461.27,346.59Z" transform="translate(7994.955 -3557.936)" fill="#fff"/>
    <path id="Path_29575" data-name="Path 29575" d="M200.17,346.59a.688.688,0,1,0,.69.69A.689.689,0,0,0,200.17,346.59Z" transform="translate(8247.069 -3557.936)" fill="#fff"/>
  </g>
</svg>
