<svg xmlns="http://www.w3.org/2000/svg" width="25.701" height="18.615" viewBox="0 0 25.701 18.615">
  <g id="stay_eat" transform="translate(-6583.897 1004.005)">
    <path id="Path_29285" data-name="Path 29285" d="M134.7,64.511c.789-.786,1.1-.99,1.047-1.474a3.435,3.435,0,0,1,.119-1.352.672.672,0,0,0-.138-.613l-2.49-2.489a.338.338,0,0,0-.509.013,3.539,3.539,0,0,0,.248,4.715l1.2,1.2a.369.369,0,0,0,.525,0Zm3.461,1.766-.013.013a.372.372,0,0,0,0,.525l3.3,3.3a.372.372,0,0,0,.525,0l1.138-1.138a.372.372,0,0,0,0-.525C139.669,65,141.058,66.1,139.175,66.1c-.318,0-.729-.107-1.015.179Zm5.271-4.114a.372.372,0,0,0,0-.525l-.229-.229a.372.372,0,0,0-.525,0l-2.112,2.115a.372.372,0,0,1-.525,0l-.229-.229a.372.372,0,0,1,0-.525l2.115-2.115a.372.372,0,0,0,0-.525L141.7,59.9a.372.372,0,0,0-.525,0l-2.112,2.112a.372.372,0,0,1-.525,0l-.229-.229a.372.372,0,0,1,0-.525l2.115-2.112a.372.372,0,0,0,0-.525l-.229-.229a.372.372,0,0,0-.525,0l-2.383,2.376a2.671,2.671,0,0,0-.7,2.5.7.7,0,0,1-.154.616l-4.536,4.539a.372.372,0,0,0,0,.525l.984.984a.372.372,0,0,0,.525,0l4.536-4.536a.711.711,0,0,1,.616-.151,2.671,2.671,0,0,0,2.5-.7Z" transform="translate(6459.088 -1055.617)" fill="#fff"/>
    <path id="Path_29299" data-name="Path 29299" d="M115.672,55.078l1.175-.644,2.809-1.54q1.7-.931,3.394-1.864L126,49.413c.477-.26.968-.506,1.43-.785l.02-.011h-.58l1.175.644,2.809,1.54q1.7.93,3.394,1.864l2.946,1.617c.477.262.948.535,1.43.785l.02.011a.612.612,0,0,0,.787-.191.519.519,0,0,0-.207-.726l-1.175-.644-2.809-1.54q-1.7-.93-3.395-1.864L128.9,48.5c-.477-.262-.948-.535-1.43-.785l-.02-.011a.624.624,0,0,0-.58,0l-1.175.644-2.809,1.54q-1.7.93-3.394,1.864l-2.946,1.617c-.477.262-.962.512-1.43.785l-.02.011a.515.515,0,0,0-.207.726.612.612,0,0,0,.787.191Z" transform="translate(6469.595 -1051.123)" fill="#fff" stroke="#fff" stroke-width="1"/>
  </g>
</svg>
