<svg id="trash_2_" data-name="trash (2)" xmlns="http://www.w3.org/2000/svg" width="12.229" height="15.05" viewBox="0 0 12.229 15.05">
  <path id="Path_23299" data-name="Path 23299" d="M59.053,1.881H56.466v-.47A1.413,1.413,0,0,0,55.055,0H53.174a1.413,1.413,0,0,0-1.411,1.411v.47H49.176A1.177,1.177,0,0,0,48,3.057V4.7a.47.47,0,0,0,.47.47h.257l.406,8.533a1.409,1.409,0,0,0,1.409,1.344h7.142a1.409,1.409,0,0,0,1.409-1.344L59.5,5.174h.257a.47.47,0,0,0,.47-.47V3.057A1.177,1.177,0,0,0,59.053,1.881ZM52.7,1.411a.471.471,0,0,1,.47-.47h1.881a.471.471,0,0,1,.47.47v.47H52.7ZM48.941,3.057a.235.235,0,0,1,.235-.235h9.877a.235.235,0,0,1,.235.235V4.233H48.941Zm9.215,10.6a.47.47,0,0,1-.47.448H50.543a.47.47,0,0,1-.47-.448l-.4-8.488h8.89Z" transform="translate(-48)" fill="#fff"/>
  <path id="Path_23300" data-name="Path 23300" d="M240.47,215.055a.47.47,0,0,0,.47-.47V208.47a.47.47,0,0,0-.941,0v6.114A.47.47,0,0,0,240.47,215.055Z" transform="translate(-234.356 -201.886)" fill="#fff"/>
  <path id="Path_23301" data-name="Path 23301" d="M320.47,215.055a.47.47,0,0,0,.47-.47V208.47a.47.47,0,0,0-.941,0v6.114A.47.47,0,0,0,320.47,215.055Z" transform="translate(-312.004 -201.886)" fill="#fff"/>
  <path id="Path_23302" data-name="Path 23302" d="M160.47,215.055a.47.47,0,0,0,.47-.47V208.47a.47.47,0,1,0-.941,0v6.114A.47.47,0,0,0,160.47,215.055Z" transform="translate(-156.708 -201.886)" fill="#fff"/>
</svg>
